<svg id="Capa_1" data-name="Capa 1" xmlns="http://www.w3.org/2000/svg" xmlns:xlink="http://www.w3.org/1999/xlink" viewBox="0 0 576.91 389.34"><defs><style>.cls-1{fill:#a0224c;}.cls-2{fill:#fff;}.cls-3{fill:#c64b55;}.cls-4{fill:#963c47;}.cls-5,.cls-9{fill:none;}.cls-6{fill:#d12959;}.cls-7{fill:url(#linear-gradient);}.cls-8{fill:url(#linear-gradient-2);}.cls-9{stroke:#1d1d1b;stroke-miterlimit:10;}</style><linearGradient id="linear-gradient" x1="335.62" y1="472.88" x2="462.99" y2="363.52" gradientUnits="userSpaceOnUse"><stop offset="0" stop-color="#a0224c"/><stop offset="0.43" stop-color="#672037"/><stop offset="1" stop-color="#1d1d1b"/></linearGradient><linearGradient id="linear-gradient-2" x1="512.68" y1="290.74" x2="424.25" y2="367.58" gradientUnits="userSpaceOnUse"><stop offset="0" stop-color="#a0224c"/><stop offset="1" stop-color="#1d1d1b"/></linearGradient></defs><title>logo_denma_svg1</title><path d="M185,522a72.93,72.93,0,0,1,14,1,19.75,19.75,0,0,1,7.78,3.27,16.78,16.78,0,0,1,5.62,7.6,35.48,35.48,0,0,1,1.76,12.27v17.92a35.48,35.48,0,0,1-1.76,12.27,16.77,16.77,0,0,1-5.62,7.6,19.13,19.13,0,0,1-7.78,3.29,74.54,74.54,0,0,1-14,1H137.46V522Zm5,7.38H145.3v51.43H190q8.86,0,12.42-3.58T206,564.81V545.47q0-9.34-3.35-12.71T190,529.38Z" transform="translate(-137.46 -231.46)"/><path d="M260.21,588.19V522h62.13v7.38H267.88v20.76h52.18v7.38H267.88v23.29h54.46v7.38Z" transform="translate(-137.46 -231.46)"/><path d="M374.32,588.19h-7.84V522h12.33l57,58.63V522h7.8v66.19H432.21l-57.9-59.52Z" transform="translate(-137.46 -231.46)"/><path d="M499.27,588.19h-7.63V522H503l37.89,57.52L578.78,522h11.66v66.19h-7.63V529.91L544,588.19h-5.89l-38.82-58.28Z" transform="translate(-137.46 -231.46)"/><path d="M630.62,588.19,667.24,522h10.43l36.7,66.19h-8.31l-8.26-14.58H647.62l-8.05,14.58Zm20.81-21.56H694l-21.45-38.05Z" transform="translate(-137.46 -231.46)"/><path class="cls-1" d="M150.89,602.75a17.25,17.25,0,0,1,3.31.24,4.67,4.67,0,0,1,1.84.77,4,4,0,0,1,1.33,1.8,8.37,8.37,0,0,1,.42,2.9v4.23a8.38,8.38,0,0,1-.42,2.9,4,4,0,0,1-1.33,1.8,4.52,4.52,0,0,1-1.84.78,17.58,17.58,0,0,1-3.31.23H139.67V602.75Zm1.18,1.74H141.52v12.15h10.55a3.15,3.15,0,0,0,3.78-3.78V608.3a4.29,4.29,0,0,0-.79-3A4.21,4.21,0,0,0,152.07,604.5Z" transform="translate(-137.46 -231.46)"/><path class="cls-1" d="M161,618.39V602.75h14.68v1.74H162.79v4.9h12.33v1.74H162.79v5.5h12.87v1.74Z" transform="translate(-137.46 -231.46)"/><path class="cls-1" d="M178.11,613.3h1.78c0,.08,0,.18,0,.3,0,.3,0,.51,0,.62a2.23,2.23,0,0,0,.92,2,7.09,7.09,0,0,0,3.44.58h3.9q3,0,4-.63a2.72,2.72,0,0,0,.92-2.41,2.6,2.6,0,0,0-.64-2,4.32,4.32,0,0,0-2.63-.55h-6.3q-3,0-4.19-1a4.06,4.06,0,0,1-1.21-3.33,3.86,3.86,0,0,1,1.38-3.39q1.38-1,5-1h3.38a23,23,0,0,1,3.89.22,3.72,3.72,0,0,1,1.74.77,2.73,2.73,0,0,1,.76,1.21,6.14,6.14,0,0,1,.25,1.88v.45h-1.78v-.24a2.51,2.51,0,0,0-.71-2.08,5.45,5.45,0,0,0-3-.54h-5.09a6,6,0,0,0-3.13.56,2.32,2.32,0,0,0-.81,2,2.4,2.4,0,0,0,.79,2.08,6.24,6.24,0,0,0,3.27.57h5.36a17.36,17.36,0,0,1,2.64.15,3.82,3.82,0,0,1,1.42.48,2.6,2.6,0,0,1,1.1,1.32,7.28,7.28,0,0,1,.33,2.48q0,2.6-1.34,3.63t-4.82,1h-5.06a7.34,7.34,0,0,1-4.28-1,3.68,3.68,0,0,1-1.28-3.16q0-.29,0-1A1.2,1.2,0,0,1,178.11,613.3Z" transform="translate(-137.46 -231.46)"/><path class="cls-1" d="M199.85,618.39H198V602.75h1.85Z" transform="translate(-137.46 -231.46)"/><path class="cls-1" d="M216.1,616.78a4.14,4.14,0,0,0,2.85-.7q.7-.7.7-3v-.8H212V610.5h9.51V613a12.09,12.09,0,0,1-.27,3.13,3.08,3.08,0,0,1-.92,1.42,3.49,3.49,0,0,1-1.68.77,19.63,19.63,0,0,1-3.5.22h-5.33a15.72,15.72,0,0,1-3.31-.25,3.93,3.93,0,0,1-1.75-.86,3.78,3.78,0,0,1-1.08-1.74,10,10,0,0,1-.33-2.88v-4.26a11.55,11.55,0,0,1,.33-3.11,3.78,3.78,0,0,1,1.08-1.82,3.89,3.89,0,0,1,1.75-.85,16.13,16.13,0,0,1,3.29-.25h5.35q3.65,0,4.95,1t1.29,3.46c0,.22,0,.38,0,.5s0,.23,0,.33h-1.7v-.23a3.45,3.45,0,0,0-.77-2.56,3.94,3.94,0,0,0-2.72-.73h-7.12a6.31,6.31,0,0,0-2.06.26,2.31,2.31,0,0,0-1.14.87,2.81,2.81,0,0,0-.41,1,11.55,11.55,0,0,0-.12,2v4.15a11.54,11.54,0,0,0,.12,2,2.81,2.81,0,0,0,.41,1,2.26,2.26,0,0,0,1.15.87,6.37,6.37,0,0,0,2.06.26Z" transform="translate(-137.46 -231.46)"/><path class="cls-1" d="M226.65,618.39H224.8V602.75h2.91l13.48,13.85V602.75H243v15.64h-2.7l-13.68-14.06Z" transform="translate(-137.46 -231.46)"/><path class="cls-1" d="M248.57,618.39v-2.84h2.31v3.22a2.23,2.23,0,0,1-.45,1.51,1.69,1.69,0,0,1-1.34.5h-.7v-1.31h.41a.55.55,0,0,0,.45-.16.85.85,0,0,0,.13-.54v-.39Z" transform="translate(-137.46 -231.46)"/><path class="cls-1" d="M277.39,602.75a17.25,17.25,0,0,1,3.31.24,4.67,4.67,0,0,1,1.84.77,4,4,0,0,1,1.33,1.8,8.37,8.37,0,0,1,.42,2.9v4.23a8.38,8.38,0,0,1-.42,2.9,4,4,0,0,1-1.33,1.8,4.52,4.52,0,0,1-1.84.78,17.58,17.58,0,0,1-3.31.23H266.17V602.75Zm1.18,1.74H268v12.15h10.55a3.15,3.15,0,0,0,3.78-3.78V608.3a4.29,4.29,0,0,0-.79-3A4.21,4.21,0,0,0,278.57,604.5Z" transform="translate(-137.46 -231.46)"/><path class="cls-1" d="M287.48,618.39V602.75h14.68v1.74H289.29v4.9h12.33v1.74H289.29v5.5h12.87v1.74Z" transform="translate(-137.46 -231.46)"/><path class="cls-1" d="M311.33,618.39,303,602.75h2.09l7.34,14,7.38-14H322l-8.28,15.64Z" transform="translate(-137.46 -231.46)"/><path class="cls-1" d="M323.8,618.39V602.75h14.68v1.74H325.61v4.9h12.33v1.74H325.61v5.5h12.87v1.74Z" transform="translate(-137.46 -231.46)"/><path class="cls-1" d="M341.21,618.39V602.75h1.85v13.92h11.59v1.72Z" transform="translate(-137.46 -231.46)"/><path class="cls-1" d="M363.55,618.58a18.35,18.35,0,0,1-3.54-.25,4.28,4.28,0,0,1-1.86-.85,3.75,3.75,0,0,1-1.16-1.76,9.52,9.52,0,0,1-.36-2.88v-4.26a11,11,0,0,1,.35-3.11,3.69,3.69,0,0,1,1.14-1.82,4.35,4.35,0,0,1,1.88-.84,18.07,18.07,0,0,1,3.52-.25h5a18.09,18.09,0,0,1,3.52.25,4.35,4.35,0,0,1,1.88.84,3.7,3.7,0,0,1,1.13,1.78,10,10,0,0,1,.36,3v4.36a10,10,0,0,1-.36,3,3.69,3.69,0,0,1-1.13,1.77,4.21,4.21,0,0,1-1.85.85,18.41,18.41,0,0,1-3.55.25Zm5.84-14.29h-6.74a7.33,7.33,0,0,0-2.22.26,2.41,2.41,0,0,0-1.22.87,2.73,2.73,0,0,0-.45,1,10.76,10.76,0,0,0-.13,2v4.11a10.75,10.75,0,0,0,.13,2,2.73,2.73,0,0,0,.45,1,2.4,2.4,0,0,0,1.22.87,7.32,7.32,0,0,0,2.22.26h6.74a7.32,7.32,0,0,0,2.22-.26,2.4,2.4,0,0,0,1.22-.87,2.72,2.72,0,0,0,.43-1,9.08,9.08,0,0,0,.13-1.81v-4.59a9.06,9.06,0,0,0-.13-1.82,2.73,2.73,0,0,0-.43-1,2.41,2.41,0,0,0-1.22-.87A7.33,7.33,0,0,0,369.39,604.29Z" transform="translate(-137.46 -231.46)"/><path class="cls-1" d="M380.57,618.39h-1.85V602.75h10.36q3.56,0,4.7.8a3.33,3.33,0,0,1,1.14,2.92v2a3.3,3.3,0,0,1-1.14,2.91q-1.14.79-4.7.79h-8.51Zm0-7.94h9a4.79,4.79,0,0,0,2.67-.5,2.61,2.61,0,0,0,.66-2.12v-.75a2.61,2.61,0,0,0-.66-2.12,4.79,4.79,0,0,0-2.67-.5h-9Z" transform="translate(-137.46 -231.46)"/><path class="cls-1" d="M395.07,618.39v-2.84h2.31v3.22a2.23,2.23,0,0,1-.45,1.51,1.69,1.69,0,0,1-1.34.5h-.7v-1.31h.41a.55.55,0,0,0,.45-.16.85.85,0,0,0,.13-.54v-.39Z" transform="translate(-137.46 -231.46)"/><path class="cls-1" d="M423.89,602.75a17.25,17.25,0,0,1,3.31.24,4.67,4.67,0,0,1,1.84.77,4,4,0,0,1,1.33,1.8,8.37,8.37,0,0,1,.42,2.9v4.23a8.38,8.38,0,0,1-.42,2.9,4,4,0,0,1-1.33,1.8,4.52,4.52,0,0,1-1.84.78,17.58,17.58,0,0,1-3.31.23H412.67V602.75Zm1.18,1.74H414.52v12.15h10.55a3.15,3.15,0,0,0,3.78-3.78V608.3a4.29,4.29,0,0,0-.79-3A4.21,4.21,0,0,0,425.07,604.5Z" transform="translate(-137.46 -231.46)"/><path class="cls-1" d="M434,618.39V602.75h14.68v1.74H435.79v4.9h12.33v1.74H435.79v5.5h12.87v1.74Z" transform="translate(-137.46 -231.46)"/><path class="cls-1" d="M451.39,618.39V602.75h1.85v13.92h11.59v1.72Z" transform="translate(-137.46 -231.46)"/><path class="cls-1" d="M469,618.39h-1.85V602.75H469Z" transform="translate(-137.46 -231.46)"/><path class="cls-1" d="M479.24,618.39,471,602.75H473l7.34,14,7.38-14h2.11l-8.28,15.64Z" transform="translate(-137.46 -231.46)"/><path class="cls-1" d="M491.7,618.39V602.75h14.68v1.74H493.52v4.9h12.33v1.74H493.52v5.5h12.87v1.74Z" transform="translate(-137.46 -231.46)"/><path class="cls-1" d="M511,618.39h-1.85V602.75h10.64q3.56,0,4.71.79a3.31,3.31,0,0,1,1.16,2.92v1.88a3.22,3.22,0,0,1-.58,2.12,3.7,3.7,0,0,1-2,1,2.62,2.62,0,0,1,1.84.91,3.32,3.32,0,0,1,.62,2.14v3.88h-1.85v-3.49a2.71,2.71,0,0,0-.64-2.09,5.07,5.07,0,0,0-3-.56h-9Zm9.39-13.94H511v6h9.39a4.64,4.64,0,0,0,2.66-.52,2.62,2.62,0,0,0,.66-2.11v-.75A2.62,2.62,0,0,0,523,605,4.61,4.61,0,0,0,520.36,604.46Z" transform="translate(-137.46 -231.46)"/><path class="cls-1" d="M530.78,618.39v-2.84h2.31v3.22a2.23,2.23,0,0,1-.45,1.51,1.69,1.69,0,0,1-1.34.5h-.7v-1.31H531a.55.55,0,0,0,.45-.16.85.85,0,0,0,.13-.54v-.39Z" transform="translate(-137.46 -231.46)"/><path class="cls-1" d="M554.51,618.58a16.39,16.39,0,0,1-3.33-.25,4,4,0,0,1-1.77-.85,3.82,3.82,0,0,1-1.08-1.7,8.14,8.14,0,0,1-.36-2.59,4.69,4.69,0,0,1,.88-3.07,3.18,3.18,0,0,1,2.58-1.05h.11a4,4,0,0,1-1.27-1.29,3.56,3.56,0,0,1-.36-1.7,3.28,3.28,0,0,1,1-2.76q1-.77,3.91-.77h5.73a3.52,3.52,0,0,1,2.74,1,4.41,4.41,0,0,1,.92,3c0,.2,0,.34,0,.44s0,.19,0,.26h-1.94c0-.09,0-.19,0-.28s0-.24,0-.42a2.48,2.48,0,0,0-.53-1.87,3.89,3.89,0,0,0-2.34-.47h-5.17a3.35,3.35,0,0,0-1.92.4,1.63,1.63,0,0,0-.54,1.4,2.11,2.11,0,0,0,.21,1,2.79,2.79,0,0,0,1,.86l10.9,6.22v-3.57h1.8v2.14q0,1.22,0,1.66a4.46,4.46,0,0,1-.1.71l3,1.65-.62,1.62-3-1.64a2.81,2.81,0,0,1-1.72,1.42,13.9,13.9,0,0,1-4,.41ZM552.88,610a3.06,3.06,0,0,0-2.27.78,3.48,3.48,0,0,0-.71,2.44A8.07,8.07,0,0,0,550,615a2.16,2.16,0,0,0,.46.93,2.27,2.27,0,0,0,1.11.67,8.64,8.64,0,0,0,2.15.19H560a9.38,9.38,0,0,0,2.33-.19,1.47,1.47,0,0,0,.93-.69Z" transform="translate(-137.46 -231.46)"/><path class="cls-1" d="M581.84,618.39H580V602.75h2.67l9,13.59,9-13.59h2.75v15.64h-1.8V604.62l-9.17,13.77H591l-9.17-13.77Z" transform="translate(-137.46 -231.46)"/><path class="cls-1" d="M605.18,618.39l8.65-15.64h2.46L625,618.39h-2l-2-3.45H609.19l-1.9,3.45Zm4.92-5.09h10.05l-5.07-9Z" transform="translate(-137.46 -231.46)"/><path class="cls-1" d="M628.66,618.39h-1.85V602.75h1.85Z" transform="translate(-137.46 -231.46)"/><path class="cls-1" d="M634.3,618.39h-1.85V602.75h2.91l13.48,13.85V602.75h1.84v15.64H648L634.3,604.33Z" transform="translate(-137.46 -231.46)"/><path class="cls-1" d="M662.22,618.39h-1.85V604.5H653v-1.74H669.6v1.74h-7.38Z" transform="translate(-137.46 -231.46)"/><path class="cls-1" d="M667.66,618.39l8.65-15.64h2.46l8.67,15.64h-2l-2-3.45H671.68l-1.9,3.45Zm4.92-5.09h10.05l-5.07-9Z" transform="translate(-137.46 -231.46)"/><path class="cls-1" d="M691.14,618.39h-1.85V602.75h1.85Z" transform="translate(-137.46 -231.46)"/><path class="cls-1" d="M696.78,618.39h-1.85V602.75h2.91l13.48,13.85V602.75h1.84v15.64h-2.7l-13.68-14.06Z" transform="translate(-137.46 -231.46)"/><polygon class="cls-2" points="224.06 230.08 225.21 233.08 224.06 233.08 224.06 230.08"/><path class="cls-3" d="M331.34,341.6h0l7.2,7.19Z" transform="translate(-137.46 -231.46)"/><path class="cls-4" d="M331.17,293.69h0Zm.17,47.91h0l7.2,7.19Zm71.84-47.91h0Zm0,0h0ZM331.34,341.6h0l7.2,7.19Zm-.17-47.91h0Zm0,0h0Zm.17,47.91h0l7.2,7.19Zm71.84-47.91h0Zm0,0h0ZM331.34,341.6h0l7.2,7.19Zm-.17-47.91h0Zm0,0h0Zm.17,47.91h0l7.2,7.19Zm71.84-47.91h0Zm0,0h0ZM331.34,341.6h0l7.2,7.19Zm-.17-47.91h0Z" transform="translate(-137.46 -231.46)"/><line class="cls-5" x1="209.18" y1="192.7" x2="204.97" y2="190.11"/><path class="cls-6" d="M395.67,411.86h0ZM381.41,435l.12-14.87h0l.51-63-24.81,18.75v96H404.1L450,435Zm115.93,15.64q2.18-2,4.2-4.23c.71-.77,1.4-1.54,2.08-2.33Zm56.81-74.72c-.07-1-.17-2-.27-3.06a116.71,116.71,0,0,0-6-26.73c-.59-1.7-1.23-3.38-1.91-5s-1.27-3.06-2-4.56a.38.38,0,0,0,0-.08c-.1-.23-.21-.46-.32-.7-1.4-3-3-6-4.62-8.87a115.76,115.76,0,0,0-6.43-9.89l0,0a109.45,109.45,0,0,0-37.08-32.42,103.2,103.2,0,0,0-48.56-12.13H403.18v75.85h0v8.3h0v56h94.73a86.18,86.18,0,0,0,9.57-.53l.36,0A83.83,83.83,0,0,0,522,409.1a85.72,85.72,0,0,0,32.4-18q.15-2.87.15-5.79Q554.53,380.56,554.15,375.94ZM461.6,348.3h0Zm70.91,65.63,21.71-20.32c.06-.84.11-1.68.15-2.52Z" transform="translate(-137.46 -231.46)"/><path class="cls-6" d="M554.23,393.61a117.87,117.87,0,0,1-3.11,20,114.19,114.19,0,0,1-21.59,44c-2.06,2.6-4.23,5.1-6.51,7.47a105.19,105.19,0,0,1-63.85,32.35l-.44,0a104.15,104.15,0,0,1-11.8.66H330.08V272.43H375l-17.76,25.81V471.86h87.4a75.06,75.06,0,0,0,8.84-.51l.33,0a75.49,75.49,0,0,0,26.14-8.21h0a80,80,0,0,0,17.38-12.42h0q2.18-2,4.2-4.23c.71-.77,1.4-1.54,2.08-2.33l28.89-30.17Z" transform="translate(-137.46 -231.46)"/><path class="cls-7" d="M381.41,435l.12-14.87h.19l10.8,10.77-10.8-10.79h-.19V351.66l-24.3,24.22v96H404.1L450,435Zm115.93,15.64q2.18-2,4.2-4.23c.71-.77,1.4-1.54,2.08-2.33Zm27.49-72.79c-.06-.79-.13-1.57-.2-2.36q-.28-2.76-.72-5.47c-.06-.36-.11-.72-.18-1.08a91.29,91.29,0,0,0-6.49-21.4c-.08-.2-.18-.39-.26-.6-1.05-2.34-2.21-4.61-3.45-6.82a88.71,88.71,0,0,0-4.81-7.61v0A82.62,82.62,0,0,0,481,307.57a75.39,75.39,0,0,0-36.33-9.32H403.18v58.34h0v56h94.73a86.18,86.18,0,0,0,9.57-.53l.36,0A83.83,83.83,0,0,0,522,409.1c.2-.76.4-1.52.58-2.3a93.82,93.82,0,0,0,2.55-21.76C525.11,382.63,525,380.23,524.83,377.87Zm-69.21-21.28h0Z" transform="translate(-137.46 -231.46)"/><path class="cls-6" d="M584.85,315.23c-.06-.82-.13-1.64-.22-2.46a92.65,92.65,0,0,0-8-29.15l-.28-.62c-1.14-2.44-2.4-4.81-3.75-7.12a92.58,92.58,0,0,0-5.21-7.94v0a88.39,88.39,0,0,0-30.07-26,84.23,84.23,0,0,0-39.38-9.73H403.18V413.29h94.73a86.18,86.18,0,0,0,9.57-.53l.36,0A83.83,83.83,0,0,0,522,409.8a85.72,85.72,0,0,0,32.4-18l.14-.13h0q2.63-2.33,5.08-4.88,2.78-2.86,5.28-6a91.23,91.23,0,0,0,17.51-35.33,94.71,94.71,0,0,0,2.76-22.7C585.15,320.2,585,317.7,584.85,315.23Zm-73,59.94a51.1,51.1,0,0,1-15.43,2.38H439.1V267.91h58.67c.53,0,1,0,1.57.07l1,.07c.44,0,.88.06,1.32.11l.75.08.72.09,1.1.16c.74.11,1.49.25,2.22.39l.83.18c.3.06.6.13.9.2l1.25.31c.46.12.91.25,1.35.39l.93.27c.69.22,1.37.45,2,.69l1,.38c.88.33,1.74.69,2.6,1.08l1.36.63c.48.23,1,.47,1.43.73.25.13.48.25.71.38q1.82,1,3.54,2.1l.92.62c.4.27.8.54,1.19.84.22.16.45.32.66.48l.65.49c.43.33.85.66,1.26,1l.11.09q.57.46,1.12.95l.27.23c.37.33.75.67,1.12,1s.79.73,1.17,1.12l.06.06q.93.93,1.81,1.89c.19.2.36.4.55.6,1,1.11,1.92,2.26,2.81,3.44.18.24.35.47.52.72h0l.15.22c.34.47.67,1,1,1.43l.08.11c.32.47.62.95.91,1.42l.2.32h0c.18.29.35.57.51.86s.27.46.41.68c.38.67.75,1.36,1.11,2s.69,1.39,1,2.1l.33.74c.25.55.48,1.09.71,1.66s.43,1.06.63,1.6.43,1.19.62,1.8.37,1.15.55,1.73.3,1.06.45,1.59L534.5,294.47l12.84,13.65q.2.76.38,1.54a1.81,1.81,0,0,1,.07.29c.12.49.22,1,.32,1.49a2.84,2.84,0,0,1,.07.34c.09.47.18.95.26,1.42a.15.15,0,0,1,0,.06c0,.14,0,.29.06.43.06.29.1.59.14.88a1.48,1.48,0,0,1,0,.25c0,.25.08.51.1.76s.11.78.14,1.17.08.79.11,1.18.06.83.09,1.24.06,1.1.08,1.66,0,1.25,0,1.88a56.64,56.64,0,0,1-1.45,12.77c-.31,1.34-.66,2.67-1.07,4-.24.79-.5,1.58-.78,2.35a54.69,54.69,0,0,1-12.17,19.67,53.13,53.13,0,0,1-10.06,8.18,51.64,51.64,0,0,1-11.8,5.49Z" transform="translate(-137.46 -231.46)"/><path class="cls-8" d="M552.17,319c0-.57,0-1.14-.08-1.7s-.06-.85-.1-1.28-.07-.82-.11-1.21-.09-.81-.14-1.21-.06-.52-.11-.78a1.22,1.22,0,0,0,0-.25c0-.3-.09-.61-.14-.91,0-.15,0-.3-.07-.44a.11.11,0,0,0,0-.05c-.08-.49-.17-1-.26-1.47,0-.11,0-.23-.07-.35-.11-.51-.21-1-.34-1.54a3,3,0,0,0-.07-.3c-.12-.53-.26-1.06-.4-1.58L537,292l13.29,14c-.15-.55-.3-1.09-.47-1.63s-.37-1.2-.57-1.79-.42-1.23-.64-1.84-.43-1.1-.65-1.65-.48-1.15-.73-1.71l-.34-.76c-.34-.73-.7-1.45-1.07-2.15s-.75-1.41-1.15-2.11c-.13-.23-.27-.47-.41-.7q-.36-.61-.74-1.22c-.31-.49-.62-1-.94-1.46l-.08-.11c-.34-.49-.68-1-1-1.47-.23-.33-.47-.64-.71-1q-1.38-1.82-2.9-3.53l-.57-.62c-.61-.66-1.24-1.31-1.87-1.94l-.06-.06c-.4-.39-.79-.77-1.21-1.15s-.77-.7-1.16-1l-.27-.24c-.38-.33-.77-.65-1.16-1l-.11-.1-1.31-1-.67-.5c-.22-.17-.45-.33-.68-.49-.41-.3-.82-.59-1.24-.86l-1-.63q-1.79-1.16-3.66-2.16c-.24-.14-.49-.26-.73-.39-.49-.26-1-.51-1.48-.75s-.94-.44-1.41-.65c-.88-.4-1.77-.77-2.68-1.11-.34-.14-.7-.27-1.05-.39-.7-.25-1.4-.49-2.12-.71l-1-.28c-.46-.14-.93-.27-1.39-.39l-1.3-.32c-.3-.08-.62-.15-.93-.21l-.86-.18c-.76-.15-1.53-.29-2.3-.4l-1.14-.16-.75-.1L503,265c-.45-.05-.91-.09-1.37-.12l-1.07-.07c-.54,0-1.08-.05-1.62-.07l-1.37,0H438.23v112.6h59.34a53.66,53.66,0,0,0,38.63-16.5,56.41,56.41,0,0,0,14.5-26.7A57.76,57.76,0,0,0,552.21,321C552.21,320.32,552.2,319.68,552.17,319Zm-40.75-28.56h0Zm-67,59.23h0l9.06,8.89Zm25.67-59.22h0Z" transform="translate(-137.46 -231.46)"/><polygon class="cls-9" points="255.06 199.45 244.26 188.68 244.07 188.68 244.07 188.67 244.26 188.67 255.06 199.45"/><rect class="cls-9" x="258.21" y="180.4" width="0.19" height="0.01"/><path class="cls-1" d="M554.38,391.07a85.72,85.72,0,0,1-32.4,18A83.83,83.83,0,0,1,507.84,412l-.36,0a86.18,86.18,0,0,1-9.57.53H403.18v-56h0V231.46l-28.19,41-17.76,25.81v77.63l24.3-24.22v68.47h0L381.41,435H450L404.1,471.86h40.52a75.06,75.06,0,0,0,8.84-.51l.33,0a75.49,75.49,0,0,0,26.14-8.21h0a80,80,0,0,0,17.38-12.42h0l6.28-6.56,28.89-30.17,21.86-22.84h0Z" transform="translate(-137.46 -231.46)"/></svg>