<svg xmlns="http://www.w3.org/2000/svg" xmlns:xlink="http://www.w3.org/1999/xlink" id="Capa_1" data-name="Capa 1" viewBox="0 0 661.83 154.35">
    <defs>
        <style>
            .cls-1{fill:currentColor;}.cls-2{fill:#fff;}.cls-3,.cls-7{fill:none;}.cls-4{fill:#d12959;}.cls-5{fill:url(#linear-gradient);}.cls-6{fill:url(#linear-gradient-2);}.cls-7{stroke:#1d1d1b;stroke-miterlimit:10;}.cls-8{fill:#a0224c;}
        </style>
        <linearGradient id="linear-gradient" x1="97.96" x2="171.68" y1="488.44" y2="425.13" gradientUnits="userSpaceOnUse">
            <stop offset="0" stop-color="#a0224c"/>
            <stop offset="0.43" stop-color="#672037"/>
            <stop offset="1" stop-color="#1d1d1b"/>
        </linearGradient>
        <linearGradient id="linear-gradient-2" x1="200.45" x2="149.26" y1="383" y2="427.49" gradientUnits="userSpaceOnUse">
            <stop offset="0" stop-color="#a0224c"/>
            <stop offset="1" stop-color="#1d1d1b"/>
        </linearGradient>
    </defs>
    <title>
        logo_denma_svg4
    </title>
    <path fill="currentColor" d="M262.64,443.48V354.65h81.62v9.9H272.72v27.86h68.54v9.9H272.72v31.26h71.54v9.9Z" transform="translate(-94.75 -348.69)"/>
    <path fill="currentColor" d="M378.32,443.48H368V354.65h16.2l74.93,78.69V354.65h10.24v88.83h-15l-76-79.88Z" transform="translate(-94.75 -348.69)"/>
    <path fill="currentColor" d="M508.24,443.48h-10V354.65h14.87l49.77,77.2,49.83-77.2H628v88.83H618V365.27l-51,78.21h-7.74l-51-78.21Z" transform="translate(-94.75 -348.69)"/>
    <path fill="currentColor" d="M646.58,443.48l48.1-88.83h13.7l48.21,88.83H745.67l-10.86-19.57H668.9l-10.58,19.57Zm27.33-28.93h55.89l-28.17-51.07Z" transform="translate(-94.75 -348.69)"/>
    <path fill="currentColor" d="M143.4,396.47h0Zm30.94,0h0Zm0,0h0Zm-30.94,0h0Zm0,0h0Zm30.94,0h0Zm-30.94,0h0Zm30.94,0h0Zm0,0h0Zm-30.94,0h0Zm0,0h0Zm30.94,0h0Z" class="cls-1" transform="translate(-94.75 -348.69)"/>
    <polygon points="18.2 133.18 18.87 134.92 18.2 134.92 18.2 133.18" class="cls-2"/>
    <line x1="9.59" x2="7.15" y1="111.54" y2="110.05" class="cls-3"/>
    <path d="M132.72,453.12h0Zm-8.25,13.4.07-8.61h0l.29-36.47-14.36,10.85v55.56H137.6l26.59-21.32Zm67.1,9.06q1.26-1.18,2.43-2.45c.41-.44.81-.89,1.2-1.35Zm32.89-43.25c0-.59-.1-1.18-.16-1.77a67.55,67.55,0,0,0-3.49-15.47c-.34-1-.71-2-1.1-2.92s-.74-1.77-1.13-2.64l0,0-.18-.41c-.81-1.76-1.71-3.47-2.67-5.13a67,67,0,0,0-3.72-5.72v0a63.35,63.35,0,0,0-21.47-18.76,59.74,59.74,0,0,0-28.11-7H137.06v43.91h0v4.8h0v32.4H191.9a49.88,49.88,0,0,0,5.54-.3l.21,0a48.52,48.52,0,0,0,8.19-1.69,49.62,49.62,0,0,0,18.75-10.44q.09-1.66.09-3.35Q224.67,435,224.45,432.32Zm-53.57-16h0Zm41,38,12.57-11.76c0-.48.06-1,.09-1.46Z" class="cls-4" transform="translate(-94.75 -348.69)"/>
    <path d="M224.5,442.55a68.23,68.23,0,0,1-1.8,11.55,66.1,66.1,0,0,1-12.5,25.48c-1.19,1.5-2.45,2.95-3.77,4.32a60.89,60.89,0,0,1-37,18.73l-.26,0a60.29,60.29,0,0,1-6.83.38H94.75V372.41h26l-10.28,14.94V487.85h50.59a43.45,43.45,0,0,0,5.11-.3l.19,0a43.7,43.7,0,0,0,15.13-4.75h0a46.28,46.28,0,0,0,10.06-7.19h0q1.26-1.18,2.43-2.45c.41-.44.81-.89,1.2-1.35l16.73-17.46Z" class="cls-4" transform="translate(-94.75 -348.69)"/>
    <path d="M124.46,466.52l.07-8.61h.11l6.25,6.24-6.25-6.24h-.11V418.27l-14.07,14v55.56H137.6l26.59-21.32Zm67.1,9.06q1.26-1.18,2.43-2.45c.41-.44.81-.89,1.2-1.35Zm15.91-42.13c0-.46-.07-.91-.12-1.37q-.16-1.6-.42-3.16c0-.21-.07-.42-.11-.63a52.84,52.84,0,0,0-3.76-12.39c0-.11-.1-.23-.15-.35-.61-1.35-1.28-2.67-2-3.95a51.35,51.35,0,0,0-2.79-4.41h0a47.82,47.82,0,0,0-16.05-14.44,43.64,43.64,0,0,0-21-5.39h-24v33.77h0v32.4H191.9a49.88,49.88,0,0,0,5.54-.3l.21,0a48.52,48.52,0,0,0,8.19-1.69c.12-.44.23-.88.34-1.33a54.31,54.31,0,0,0,1.47-12.59C207.64,436.19,207.59,434.81,207.48,433.44Zm-40.06-12.32h0Z" class="cls-5" transform="translate(-94.75 -348.69)"/>
    <path d="M242.22,397.18c0-.48-.08-.95-.13-1.42a53.63,53.63,0,0,0-4.64-16.88l-.16-.36c-.66-1.41-1.39-2.79-2.17-4.12a53.59,53.59,0,0,0-3-4.59v0a51.16,51.16,0,0,0-17.4-15.06,48.76,48.76,0,0,0-22.79-5.63H137.06V453.94H191.9a49.88,49.88,0,0,0,5.54-.3l.21,0a48.52,48.52,0,0,0,8.19-1.69,49.62,49.62,0,0,0,18.75-10.44l.08-.07h0q1.52-1.35,2.94-2.82,1.61-1.66,3.05-3.47a52.81,52.81,0,0,0,10.14-20.45,54.82,54.82,0,0,0,1.6-13.14C242.4,400.06,242.34,398.61,242.22,397.18ZM200,431.88a29.58,29.58,0,0,1-8.93,1.38H157.85V369.79h34l.91,0,.6,0,.76.07.43,0,.42.05.64.09c.43.06.86.14,1.28.23l.48.1.52.12.72.18.78.22.54.15,1.19.4.59.22c.51.19,1,.4,1.5.63l.79.37c.28.13.56.27.83.42l.41.22q1.05.56,2.05,1.21l.53.36c.23.15.46.31.69.48l.38.28.37.28.73.58.06.05.65.55.15.13c.22.19.43.39.65.59s.46.42.68.65l0,0q.54.54,1,1.1l.32.35c.57.64,1.11,1.31,1.62,2l.3.41h0l.09.13c.2.27.39.55.58.83l0,.07c.18.27.36.55.53.82l.11.18h0c.1.17.2.33.3.5l.24.39c.22.39.43.79.64,1.19s.4.8.6,1.21l.19.43c.14.32.28.63.41,1s.25.61.37.93.25.69.36,1,.22.67.32,1,.17.61.26.92l-7.43-7.9,7.43,7.9q.12.44.22.89a1,1,0,0,1,0,.17c.07.28.13.58.19.87a1.64,1.64,0,0,1,0,.19c.05.27.11.55.15.82a.09.09,0,0,1,0,0c0,.08,0,.17,0,.25s.06.34.08.51a.86.86,0,0,1,0,.14c0,.15,0,.29.06.44s.06.45.08.68,0,.45.06.68,0,.48.05.72,0,.64,0,1,0,.72,0,1.09a32.79,32.79,0,0,1-.84,7.39c-.18.78-.38,1.54-.62,2.3-.14.46-.29.91-.45,1.36a31.66,31.66,0,0,1-7,11.38,30.75,30.75,0,0,1-5.82,4.74,29.89,29.89,0,0,1-6.83,3.18Z" class="cls-4" transform="translate(-94.75 -348.69)"/>
    <path d="M223.3,399.38c0-.33,0-.66,0-1s0-.49-.06-.74,0-.47-.07-.7-.05-.47-.08-.7,0-.3-.06-.45a.71.71,0,0,0,0-.15c0-.18-.05-.35-.08-.53s0-.17,0-.26a.06.06,0,0,0,0,0c0-.29-.1-.57-.15-.85,0-.07,0-.14,0-.2-.06-.3-.12-.6-.19-.89a1.76,1.76,0,0,0,0-.18c-.07-.31-.15-.61-.23-.91l-7.69-8.11,7.69,8.11c-.09-.32-.17-.63-.27-.94s-.21-.69-.33-1-.25-.71-.37-1.06-.25-.64-.38-1-.28-.66-.42-1l-.2-.44c-.2-.42-.4-.84-.62-1.25s-.43-.82-.66-1.22l-.24-.41-.43-.71c-.18-.28-.36-.56-.55-.84l0-.07c-.19-.29-.39-.57-.6-.85l-.41-.56q-.8-1.05-1.68-2l-.33-.36c-.35-.38-.72-.76-1.08-1.12l0,0c-.23-.23-.46-.45-.7-.66l-.67-.6-.16-.14-.67-.56-.07-.06-.76-.59-.39-.29-.39-.29c-.24-.18-.48-.34-.72-.5l-.55-.37q-1-.67-2.12-1.25l-.42-.23-.86-.43-.82-.38c-.51-.23-1-.45-1.55-.64l-.61-.23c-.4-.15-.81-.28-1.23-.41l-.55-.16-.81-.23-.75-.19-.54-.12-.5-.11c-.44-.09-.88-.17-1.33-.23l-.66-.1-.43-.06-.45,0-.79-.07-.62,0-.94,0H157.35v65.18H191.7a31.06,31.06,0,0,0,22.36-9.55,32.65,32.65,0,0,0,8.4-15.45,33.43,33.43,0,0,0,.86-7.59C223.32,400.13,223.32,399.75,223.3,399.38Zm-23.59-16.53h0Zm-38.8,34.28h0l5.24,5.15Zm14.86-34.28h0Z" class="cls-6" transform="translate(-94.75 -348.69)"/>
    <polygon points="36.14 115.45 29.89 109.22 29.78 109.22 29.78 109.21 29.89 109.21 36.14 115.45" class="cls-7"/>
    <rect width="0.11" x="37.97" y="104.42" class="cls-7"/>
    <path d="M224.58,441.08a49.62,49.62,0,0,1-18.75,10.44,48.52,48.52,0,0,1-8.19,1.69l-.21,0a49.88,49.88,0,0,1-5.54.3H137.06v-32.4h0V348.69l-16.32,23.72-10.28,14.94v44.94l14.07-14V457.9h0l-.07,8.61h39.72L137.6,487.85h23.46a43.45,43.45,0,0,0,5.11-.3l.19,0a43.7,43.7,0,0,0,15.13-4.75h0a46.28,46.28,0,0,0,10.06-7.19h0l3.64-3.8,16.73-17.46,12.65-13.22h0Z" class="cls-8" transform="translate(-94.75 -348.69)"/>
</svg>
