<svg id="Capa_1" data-name="Capa 1" xmlns="http://www.w3.org/2000/svg" xmlns:xlink="http://www.w3.org/1999/xlink" viewBox="0 0 576.91 356.73"><defs><style>.cls-1{fill:#fff;}.cls-2{fill:#c64b55;}.cls-3{fill:#963c47;}.cls-4,.cls-8{fill:none;}.cls-5{fill:#d12959;}.cls-6{fill:url(#linear-gradient);}.cls-7{fill:url(#linear-gradient-2);}.cls-8{stroke:#1d1d1b;stroke-miterlimit:10;}.cls-9{fill:#a0224c;}</style><linearGradient id="linear-gradient" x1="336.4" y1="488.98" x2="463.77" y2="379.61" gradientUnits="userSpaceOnUse"><stop offset="0" stop-color="#a0224c"/><stop offset="0.43" stop-color="#672037"/><stop offset="1" stop-color="#1d1d1b"/></linearGradient><linearGradient id="linear-gradient-2" x1="513.46" y1="306.83" x2="425.03" y2="383.68" gradientUnits="userSpaceOnUse"><stop offset="0" stop-color="#a0224c"/><stop offset="1" stop-color="#1d1d1b"/></linearGradient></defs><title>logo_denma_svg5</title><path d="M185.75,538.09a72.93,72.93,0,0,1,14,1,19.75,19.75,0,0,1,7.78,3.27,16.78,16.78,0,0,1,5.62,7.6,35.48,35.48,0,0,1,1.76,12.27v17.92a35.48,35.48,0,0,1-1.76,12.27,16.77,16.77,0,0,1-5.62,7.6,19.13,19.13,0,0,1-7.78,3.29,74.54,74.54,0,0,1-14,1H138.24V538.09Zm5,7.38H146.08V596.9h44.67q8.86,0,12.42-3.58t3.56-12.42V561.56q0-9.34-3.35-12.71T190.75,545.47Z" transform="translate(-138.24 -247.55)"/><path d="M261,604.28V538.09h62.13v7.38H268.66v20.76h52.18v7.38H268.66V596.9h54.46v7.38Z" transform="translate(-138.24 -247.55)"/><path d="M375.09,604.28h-7.84V538.09h12.33l57,58.63V538.09h7.8v66.19H433l-57.9-59.52Z" transform="translate(-138.24 -247.55)"/><path d="M500,604.28h-7.63V538.09h11.32l37.89,57.52,37.93-57.52h11.66v66.19h-7.63V546l-38.82,58.28h-5.89L500,546Z" transform="translate(-138.24 -247.55)"/><path d="M631.4,604.28,668,538.09h10.43l36.7,66.19h-8.31l-8.26-14.58H648.4l-8.05,14.58Zm20.81-21.56h42.55l-21.45-38.05Z" transform="translate(-138.24 -247.55)"/><polygon class="cls-1" points="224.06 230.08 225.21 233.08 224.06 233.08 224.06 230.08"/><path class="cls-2" d="M332.11,357.69h0l7.2,7.19Z" transform="translate(-138.24 -247.55)"/><path class="cls-3" d="M331.94,309.78h0Zm.17,47.91h0l7.2,7.19ZM404,309.78h0Zm0,0h0Zm-71.84,47.91h0l7.2,7.19Zm-.17-47.91h0Zm0,0h0Zm.17,47.91h0l7.2,7.19ZM404,309.78h0Zm0,0h0Zm-71.84,47.91h0l7.2,7.19Zm-.17-47.91h0Zm0,0h0Zm.17,47.91h0l7.2,7.19ZM404,309.78h0Zm0,0h0Zm-71.84,47.91h0l7.2,7.19Zm-.17-47.91h0Z" transform="translate(-138.24 -247.55)"/><line class="cls-4" x1="209.18" y1="192.7" x2="204.97" y2="190.11"/><path class="cls-5" d="M396.45,428h0Zm-14.26,23.15.12-14.87h0l.51-63L358,392v96h46.88l45.93-36.84Zm115.93,15.64q2.18-2,4.2-4.23c.71-.77,1.4-1.54,2.08-2.33ZM554.93,392c-.07-1-.17-2-.27-3.06a116.71,116.71,0,0,0-6-26.73c-.59-1.7-1.23-3.38-1.91-5s-1.27-3.06-2-4.56a.38.38,0,0,0,0-.08c-.1-.23-.21-.46-.32-.7-1.4-3-3-6-4.62-8.87a115.76,115.76,0,0,0-6.43-9.89l0,0a109.45,109.45,0,0,0-37.08-32.42,103.2,103.2,0,0,0-48.56-12.13H404v75.85h0v8.3h0v56h94.73a86.18,86.18,0,0,0,9.57-.53l.36,0a83.83,83.83,0,0,0,14.14-2.91,85.72,85.72,0,0,0,32.4-18q.15-2.87.15-5.79Q555.3,396.65,554.93,392Zm-92.55-27.65h0ZM533.29,430,555,409.7c.06-.84.11-1.68.15-2.52Z" transform="translate(-138.24 -247.55)"/><path class="cls-5" d="M555,409.7a117.87,117.87,0,0,1-3.11,20,114.19,114.19,0,0,1-21.59,44c-2.06,2.6-4.23,5.1-6.51,7.47A105.19,105.19,0,0,1,460,513.51l-.44,0a104.15,104.15,0,0,1-11.8.66H330.86V288.53h44.9L358,314.34V488h87.4a75.06,75.06,0,0,0,8.84-.51l.33,0a75.49,75.49,0,0,0,26.14-8.21h0a80,80,0,0,0,17.38-12.42h0q2.18-2,4.2-4.23c.71-.77,1.4-1.54,2.08-2.33L533.29,430Z" transform="translate(-138.24 -247.55)"/><path class="cls-6" d="M382.19,451.11l.12-14.87h.19L393.3,447l-10.8-10.79h-.19V367.75L358,392v96h46.88l45.93-36.84Zm115.93,15.64q2.18-2,4.2-4.23c.71-.77,1.4-1.54,2.08-2.33ZM525.61,394c-.06-.79-.13-1.57-.2-2.36q-.28-2.76-.72-5.47c-.06-.36-.11-.72-.18-1.08a91.29,91.29,0,0,0-6.49-21.4c-.08-.2-.18-.39-.26-.6-1.05-2.34-2.21-4.61-3.45-6.82a88.71,88.71,0,0,0-4.81-7.61v0a82.62,82.62,0,0,0-27.74-24.94,75.39,75.39,0,0,0-36.33-9.32H404v58.34h0v56h94.73a86.18,86.18,0,0,0,9.57-.53l.36,0a83.83,83.83,0,0,0,14.14-2.91c.2-.76.4-1.52.58-2.3a93.82,93.82,0,0,0,2.55-21.76C525.89,398.72,525.79,396.32,525.61,394Zm-69.21-21.28h0Z" transform="translate(-138.24 -247.55)"/><path class="cls-5" d="M585.63,331.32c-.06-.82-.13-1.64-.22-2.46a92.65,92.65,0,0,0-8-29.15l-.28-.62c-1.14-2.44-2.4-4.81-3.75-7.12a92.58,92.58,0,0,0-5.21-7.94v0a88.39,88.39,0,0,0-30.07-26,84.23,84.23,0,0,0-39.38-9.73H404V429.38h94.73a86.18,86.18,0,0,0,9.57-.53l.36,0a83.83,83.83,0,0,0,14.14-2.91,85.72,85.72,0,0,0,32.4-18l.14-.13h0q2.63-2.33,5.08-4.88,2.78-2.86,5.28-6a91.23,91.23,0,0,0,17.51-35.33,94.71,94.71,0,0,0,2.76-22.7C585.93,336.29,585.82,333.79,585.63,331.32Zm-73,59.94a51.1,51.1,0,0,1-15.43,2.38H439.87V284h58.67c.53,0,1,0,1.57.07l1,.07c.44,0,.88.06,1.32.11l.75.08.72.09,1.1.16c.74.11,1.49.25,2.22.39l.83.18c.3.06.6.13.9.2l1.25.31c.46.12.91.25,1.35.39l.93.27c.69.22,1.37.45,2,.69l1,.38c.88.33,1.74.69,2.6,1.08l1.36.63c.48.23,1,.47,1.43.73.25.13.48.25.71.38q1.82,1,3.54,2.1l.92.62c.4.27.8.54,1.19.84.22.16.45.32.66.48l.65.49c.43.33.85.66,1.26,1l.11.09q.57.46,1.12.95l.27.23c.37.33.75.67,1.12,1s.79.73,1.17,1.12l.06.06q.93.93,1.81,1.89c.19.2.36.4.55.6,1,1.11,1.92,2.26,2.81,3.44.18.24.35.47.52.72h0l.15.22c.34.47.67,1,1,1.43l.08.11c.32.47.62.95.91,1.42l.2.32h0c.18.29.35.57.51.86s.27.46.41.68c.38.67.75,1.36,1.11,2s.69,1.39,1,2.1l.33.74c.25.55.48,1.09.71,1.66s.43,1.06.63,1.6.43,1.19.62,1.8.37,1.15.55,1.73.3,1.06.45,1.59l-12.84-13.64,12.84,13.65q.2.76.38,1.54a1.81,1.81,0,0,1,.07.29c.12.49.22,1,.32,1.49a2.84,2.84,0,0,1,.07.34c.09.47.18.95.26,1.42a.15.15,0,0,1,0,.06c0,.14,0,.29.06.43.06.29.1.59.14.88a1.48,1.48,0,0,1,0,.25c0,.25.08.51.1.76s.11.78.14,1.17.08.79.11,1.18.06.83.09,1.24.06,1.1.08,1.66,0,1.25,0,1.88a56.64,56.64,0,0,1-1.45,12.77c-.31,1.34-.66,2.67-1.07,4-.24.79-.5,1.58-.78,2.35a54.69,54.69,0,0,1-12.17,19.67,53.13,53.13,0,0,1-10.06,8.18,51.64,51.64,0,0,1-11.8,5.49Z" transform="translate(-138.24 -247.55)"/><path class="cls-7" d="M552.95,335.13c0-.57,0-1.14-.08-1.7s-.06-.85-.1-1.28-.07-.82-.11-1.21-.09-.81-.14-1.21-.06-.52-.11-.78a1.22,1.22,0,0,0,0-.25c0-.3-.09-.61-.14-.91,0-.15,0-.3-.07-.44a.11.11,0,0,0,0-.05c-.08-.49-.17-1-.26-1.47,0-.11,0-.23-.07-.35-.11-.51-.21-1-.34-1.54a3,3,0,0,0-.07-.3c-.12-.53-.26-1.06-.4-1.58l-13.28-14,13.29,14c-.15-.55-.3-1.09-.47-1.63s-.37-1.2-.57-1.79-.42-1.23-.64-1.84-.43-1.1-.65-1.65-.48-1.15-.73-1.71l-.34-.76c-.34-.73-.7-1.45-1.07-2.15s-.75-1.41-1.15-2.11c-.13-.23-.27-.47-.41-.7q-.36-.61-.74-1.22c-.31-.49-.62-1-.94-1.46l-.08-.11c-.34-.49-.68-1-1-1.47-.23-.33-.47-.64-.71-1q-1.38-1.82-2.9-3.53l-.57-.62c-.61-.66-1.24-1.31-1.87-1.94l-.06-.06c-.4-.39-.79-.77-1.21-1.15s-.77-.7-1.16-1l-.27-.24c-.38-.33-.77-.65-1.16-1l-.11-.1-1.31-1-.67-.5c-.22-.17-.45-.33-.68-.49-.41-.3-.82-.59-1.24-.86l-1-.63q-1.79-1.16-3.66-2.16c-.24-.14-.49-.26-.73-.39-.49-.26-1-.51-1.48-.75s-.94-.44-1.41-.65c-.88-.4-1.77-.77-2.68-1.11-.34-.14-.7-.27-1.05-.39-.7-.25-1.4-.49-2.12-.71l-1-.28c-.46-.14-.93-.27-1.39-.39l-1.3-.32c-.3-.08-.62-.15-.93-.21l-.86-.18c-.76-.15-1.53-.29-2.3-.4l-1.14-.16-.75-.1-.78-.08c-.45-.05-.91-.09-1.37-.12l-1.07-.07c-.54,0-1.08-.05-1.62-.07l-1.37,0H439v112.6h59.34A53.66,53.66,0,0,0,537,376.87a56.41,56.41,0,0,0,14.5-26.7A57.76,57.76,0,0,0,553,337.06C553,336.41,553,335.77,552.95,335.13Zm-40.75-28.56h0Zm-67,59.23h0l9.06,8.89Zm25.67-59.22h0Z" transform="translate(-138.24 -247.55)"/><polygon class="cls-8" points="255.06 199.45 244.26 188.68 244.07 188.68 244.07 188.67 244.26 188.67 255.06 199.45"/><rect class="cls-8" x="258.21" y="180.4" width="0.19" height="0.01"/><path class="cls-9" d="M555.15,407.16a85.72,85.72,0,0,1-32.4,18,83.83,83.83,0,0,1-14.14,2.91l-.36,0a86.18,86.18,0,0,1-9.57.53H404v-56h0V247.55l-28.19,41L358,314.34V392l24.3-24.22v68.47h0l-.12,14.87h68.63L404.88,488H445.4a75.06,75.06,0,0,0,8.84-.51l.33,0a75.49,75.49,0,0,0,26.14-8.21h0a80,80,0,0,0,17.38-12.42h0l6.28-6.56L533.29,430l21.86-22.84h0Z" transform="translate(-138.24 -247.55)"/></svg>